<mxfile host="app.diagrams.net" modified="2022-04-15T09:20:16.058Z" agent="5.0 (X11)" etag="NAuPiu4zGg3w2FD7SNGH" version="17.4.0" type="github">
  <diagram id="PvfPX7x2fVyplM3FKnBu" name="Page-1">
    <mxGraphModel dx="1662" dy="747" grid="0" gridSize="10" guides="1" tooltips="1" connect="1" arrows="1" fold="1" page="0" pageScale="1" pageWidth="827" pageHeight="1169" math="0" shadow="0">
      <root>
        <mxCell id="0" />
        <mxCell id="1" parent="0" />
        <mxCell id="iVXrYITjM_9NBAxxftmw-4" style="edgeStyle=orthogonalEdgeStyle;rounded=0;orthogonalLoop=1;jettySize=auto;html=1;exitX=0.5;exitY=1;exitDx=0;exitDy=0;" parent="1" source="iVXrYITjM_9NBAxxftmw-1" target="iVXrYITjM_9NBAxxftmw-2" edge="1">
          <mxGeometry relative="1" as="geometry" />
        </mxCell>
        <mxCell id="iVXrYITjM_9NBAxxftmw-1" value="Начало" style="rounded=1;whiteSpace=wrap;html=1;" parent="1" vertex="1">
          <mxGeometry x="180" y="80" width="100" height="30" as="geometry" />
        </mxCell>
        <mxCell id="iVXrYITjM_9NBAxxftmw-5" style="edgeStyle=orthogonalEdgeStyle;rounded=0;orthogonalLoop=1;jettySize=auto;html=1;exitX=0.5;exitY=1;exitDx=0;exitDy=0;entryX=0.5;entryY=0;entryDx=0;entryDy=0;" parent="1" source="iVXrYITjM_9NBAxxftmw-2" target="iVXrYITjM_9NBAxxftmw-3" edge="1">
          <mxGeometry relative="1" as="geometry" />
        </mxCell>
        <mxCell id="iVXrYITjM_9NBAxxftmw-2" value="Инициализация флагов" style="rounded=0;whiteSpace=wrap;html=1;" parent="1" vertex="1">
          <mxGeometry x="160" y="140" width="140" height="30" as="geometry" />
        </mxCell>
        <mxCell id="iVXrYITjM_9NBAxxftmw-7" value="" style="edgeStyle=orthogonalEdgeStyle;rounded=0;orthogonalLoop=1;jettySize=auto;html=1;" parent="1" source="iVXrYITjM_9NBAxxftmw-3" target="iVXrYITjM_9NBAxxftmw-6" edge="1">
          <mxGeometry relative="1" as="geometry" />
        </mxCell>
        <mxCell id="iVXrYITjM_9NBAxxftmw-3" value="Подключение выходов и выходов" style="rounded=0;whiteSpace=wrap;html=1;" parent="1" vertex="1">
          <mxGeometry x="160" y="190" width="140" height="30" as="geometry" />
        </mxCell>
        <mxCell id="iVXrYITjM_9NBAxxftmw-23" style="edgeStyle=orthogonalEdgeStyle;rounded=0;orthogonalLoop=1;jettySize=auto;html=1;exitX=0.5;exitY=1;exitDx=0;exitDy=0;entryX=0.5;entryY=0;entryDx=0;entryDy=0;" parent="1" source="iVXrYITjM_9NBAxxftmw-6" target="iVXrYITjM_9NBAxxftmw-21" edge="1">
          <mxGeometry relative="1" as="geometry" />
        </mxCell>
        <mxCell id="iVXrYITjM_9NBAxxftmw-6" value="А" style="ellipse;whiteSpace=wrap;html=1;rounded=0;" parent="1" vertex="1">
          <mxGeometry x="195" y="240" width="70" height="65" as="geometry" />
        </mxCell>
        <mxCell id="iVXrYITjM_9NBAxxftmw-29" style="edgeStyle=orthogonalEdgeStyle;rounded=0;orthogonalLoop=1;jettySize=auto;html=1;exitX=0.5;exitY=1;exitDx=0;exitDy=0;entryX=1;entryY=0.5;entryDx=0;entryDy=0;" parent="1" source="iVXrYITjM_9NBAxxftmw-8" target="iVXrYITjM_9NBAxxftmw-21" edge="1">
          <mxGeometry relative="1" as="geometry">
            <mxPoint x="459" y="386" as="targetPoint" />
            <Array as="points">
              <mxPoint x="162" y="685" />
              <mxPoint x="464" y="685" />
              <mxPoint x="464" y="364" />
            </Array>
          </mxGeometry>
        </mxCell>
        <mxCell id="iVXrYITjM_9NBAxxftmw-8" value="В" style="ellipse;whiteSpace=wrap;html=1;rounded=0;" parent="1" vertex="1">
          <mxGeometry x="127" y="600" width="70" height="65" as="geometry" />
        </mxCell>
        <mxCell id="iVXrYITjM_9NBAxxftmw-10" value="Ожидание нажатой кнопки старт" style="text;html=1;strokeColor=none;fillColor=none;align=center;verticalAlign=middle;whiteSpace=wrap;rounded=0;" parent="1" vertex="1">
          <mxGeometry x="268" y="251" width="88" height="44" as="geometry" />
        </mxCell>
        <mxCell id="iVXrYITjM_9NBAxxftmw-12" value="&lt;div&gt;Движение &lt;br&gt;&lt;/div&gt;&lt;div&gt;диодов влево&lt;/div&gt;" style="text;html=1;align=center;verticalAlign=middle;resizable=0;points=[];autosize=1;strokeColor=none;fillColor=none;" parent="1" vertex="1">
          <mxGeometry x="33" y="624" width="87" height="32" as="geometry" />
        </mxCell>
        <mxCell id="iVXrYITjM_9NBAxxftmw-30" style="edgeStyle=orthogonalEdgeStyle;rounded=0;orthogonalLoop=1;jettySize=auto;html=1;exitX=0.5;exitY=1;exitDx=0;exitDy=0;" parent="1" source="iVXrYITjM_9NBAxxftmw-13" edge="1">
          <mxGeometry relative="1" as="geometry">
            <mxPoint x="303" y="687.2857142857142" as="targetPoint" />
          </mxGeometry>
        </mxCell>
        <mxCell id="iVXrYITjM_9NBAxxftmw-13" value="С" style="ellipse;whiteSpace=wrap;html=1;rounded=0;" parent="1" vertex="1">
          <mxGeometry x="268" y="600" width="70" height="65" as="geometry" />
        </mxCell>
        <mxCell id="iVXrYITjM_9NBAxxftmw-14" value="&lt;div&gt;Движение &lt;br&gt;&lt;/div&gt;&lt;div&gt;диодов вправо&lt;/div&gt;" style="text;html=1;align=center;verticalAlign=middle;resizable=0;points=[];autosize=1;strokeColor=none;fillColor=none;" parent="1" vertex="1">
          <mxGeometry x="346" y="616.5" width="93" height="32" as="geometry" />
        </mxCell>
        <mxCell id="iVXrYITjM_9NBAxxftmw-16" style="edgeStyle=orthogonalEdgeStyle;rounded=0;orthogonalLoop=1;jettySize=auto;html=1;exitX=0;exitY=0.5;exitDx=0;exitDy=0;" parent="1" source="iVXrYITjM_9NBAxxftmw-15" target="iVXrYITjM_9NBAxxftmw-8" edge="1">
          <mxGeometry relative="1" as="geometry" />
        </mxCell>
        <mxCell id="iVXrYITjM_9NBAxxftmw-18" style="edgeStyle=orthogonalEdgeStyle;rounded=0;orthogonalLoop=1;jettySize=auto;html=1;exitX=1;exitY=0.5;exitDx=0;exitDy=0;" parent="1" source="iVXrYITjM_9NBAxxftmw-15" target="iVXrYITjM_9NBAxxftmw-13" edge="1">
          <mxGeometry relative="1" as="geometry" />
        </mxCell>
        <mxCell id="iVXrYITjM_9NBAxxftmw-15" value="&lt;div&gt;Двигаться&lt;/div&gt;&lt;div&gt;влево?&lt;br&gt;&lt;/div&gt;" style="rhombus;whiteSpace=wrap;html=1;" parent="1" vertex="1">
          <mxGeometry x="185.5" y="507" width="89" height="47" as="geometry" />
        </mxCell>
        <mxCell id="iVXrYITjM_9NBAxxftmw-17" value="&lt;div&gt;Да&lt;/div&gt;" style="text;html=1;align=center;verticalAlign=middle;resizable=0;points=[];autosize=1;strokeColor=none;fillColor=none;" parent="1" vertex="1">
          <mxGeometry x="132" y="533" width="25" height="18" as="geometry" />
        </mxCell>
        <mxCell id="iVXrYITjM_9NBAxxftmw-19" value="Нет" style="text;html=1;align=center;verticalAlign=middle;resizable=0;points=[];autosize=1;strokeColor=none;fillColor=none;" parent="1" vertex="1">
          <mxGeometry x="319" y="536" width="31" height="18" as="geometry" />
        </mxCell>
        <mxCell id="iVXrYITjM_9NBAxxftmw-24" style="edgeStyle=orthogonalEdgeStyle;rounded=0;orthogonalLoop=1;jettySize=auto;html=1;exitX=0.5;exitY=1;exitDx=0;exitDy=0;entryX=0.5;entryY=0;entryDx=0;entryDy=0;" parent="1" source="iVXrYITjM_9NBAxxftmw-21" target="iVXrYITjM_9NBAxxftmw-22" edge="1">
          <mxGeometry relative="1" as="geometry" />
        </mxCell>
        <mxCell id="iVXrYITjM_9NBAxxftmw-21" value="Задержка" style="ellipse;whiteSpace=wrap;html=1;" parent="1" vertex="1">
          <mxGeometry x="199.5" y="335" width="61" height="58" as="geometry" />
        </mxCell>
        <mxCell id="iVXrYITjM_9NBAxxftmw-25" style="edgeStyle=orthogonalEdgeStyle;rounded=0;orthogonalLoop=1;jettySize=auto;html=1;exitX=0;exitY=0.5;exitDx=0;exitDy=0;entryX=0;entryY=0.5;entryDx=0;entryDy=0;" parent="1" source="iVXrYITjM_9NBAxxftmw-22" target="iVXrYITjM_9NBAxxftmw-6" edge="1">
          <mxGeometry relative="1" as="geometry" />
        </mxCell>
        <mxCell id="iVXrYITjM_9NBAxxftmw-28" style="edgeStyle=orthogonalEdgeStyle;rounded=0;orthogonalLoop=1;jettySize=auto;html=1;exitX=0.5;exitY=1;exitDx=0;exitDy=0;" parent="1" source="iVXrYITjM_9NBAxxftmw-22" target="iVXrYITjM_9NBAxxftmw-15" edge="1">
          <mxGeometry relative="1" as="geometry" />
        </mxCell>
        <mxCell id="iVXrYITjM_9NBAxxftmw-22" value="Нажата кнопка стоп?" style="rhombus;whiteSpace=wrap;html=1;" parent="1" vertex="1">
          <mxGeometry x="157.5" y="407" width="145" height="82" as="geometry" />
        </mxCell>
        <mxCell id="iVXrYITjM_9NBAxxftmw-26" value="Да" style="text;html=1;align=center;verticalAlign=middle;resizable=0;points=[];autosize=1;strokeColor=none;fillColor=none;" parent="1" vertex="1">
          <mxGeometry x="99" y="366" width="25" height="18" as="geometry" />
        </mxCell>
        <mxCell id="iVXrYITjM_9NBAxxftmw-27" value="Нет" style="text;html=1;align=center;verticalAlign=middle;resizable=0;points=[];autosize=1;strokeColor=none;fillColor=none;" parent="1" vertex="1">
          <mxGeometry x="241" y="481" width="31" height="18" as="geometry" />
        </mxCell>
        <mxCell id="-pBQf86W2nje5Cp0ZffW-13" style="edgeStyle=orthogonalEdgeStyle;rounded=0;orthogonalLoop=1;jettySize=auto;html=1;exitX=0.5;exitY=1;exitDx=0;exitDy=0;" parent="1" source="-pBQf86W2nje5Cp0ZffW-1" target="-pBQf86W2nje5Cp0ZffW-6" edge="1">
          <mxGeometry relative="1" as="geometry" />
        </mxCell>
        <mxCell id="-pBQf86W2nje5Cp0ZffW-1" value="Начало" style="rounded=1;whiteSpace=wrap;html=1;" parent="1" vertex="1">
          <mxGeometry x="670" y="68" width="86" height="30" as="geometry" />
        </mxCell>
        <mxCell id="-pBQf86W2nje5Cp0ZffW-14" style="edgeStyle=orthogonalEdgeStyle;rounded=0;orthogonalLoop=1;jettySize=auto;html=1;exitX=0.5;exitY=1;exitDx=0;exitDy=0;" parent="1" source="-pBQf86W2nje5Cp0ZffW-6" target="-pBQf86W2nje5Cp0ZffW-7" edge="1">
          <mxGeometry relative="1" as="geometry" />
        </mxCell>
        <mxCell id="-pBQf86W2nje5Cp0ZffW-6" value="Инициализация констант, переменных и портов ввода и вывода" style="rounded=0;whiteSpace=wrap;html=1;" parent="1" vertex="1">
          <mxGeometry x="645" y="118" width="136" height="63" as="geometry" />
        </mxCell>
        <mxCell id="-pBQf86W2nje5Cp0ZffW-15" style="edgeStyle=orthogonalEdgeStyle;rounded=0;orthogonalLoop=1;jettySize=auto;html=1;exitX=0.5;exitY=1;exitDx=0;exitDy=0;entryX=0.5;entryY=0;entryDx=0;entryDy=0;" parent="1" source="-pBQf86W2nje5Cp0ZffW-7" target="-pBQf86W2nje5Cp0ZffW-8" edge="1">
          <mxGeometry relative="1" as="geometry" />
        </mxCell>
        <mxCell id="-pBQf86W2nje5Cp0ZffW-31" style="edgeStyle=orthogonalEdgeStyle;rounded=0;orthogonalLoop=1;jettySize=auto;html=1;exitX=0;exitY=0.5;exitDx=0;exitDy=0;" parent="1" source="-pBQf86W2nje5Cp0ZffW-7" edge="1">
          <mxGeometry relative="1" as="geometry">
            <mxPoint x="609" y="192" as="targetPoint" />
          </mxGeometry>
        </mxCell>
        <mxCell id="-pBQf86W2nje5Cp0ZffW-7" value="Кнопка старт нажата?" style="rhombus;whiteSpace=wrap;html=1;" parent="1" vertex="1">
          <mxGeometry x="629" y="206" width="168" height="80" as="geometry" />
        </mxCell>
        <mxCell id="-pBQf86W2nje5Cp0ZffW-16" style="edgeStyle=orthogonalEdgeStyle;rounded=0;orthogonalLoop=1;jettySize=auto;html=1;exitX=0.5;exitY=1;exitDx=0;exitDy=0;entryX=0.5;entryY=0;entryDx=0;entryDy=0;" parent="1" source="-pBQf86W2nje5Cp0ZffW-8" target="-pBQf86W2nje5Cp0ZffW-9" edge="1">
          <mxGeometry relative="1" as="geometry" />
        </mxCell>
        <mxCell id="-pBQf86W2nje5Cp0ZffW-8" value="Вывод на индикаторы" style="shape=parallelogram;perimeter=parallelogramPerimeter;whiteSpace=wrap;html=1;fixedSize=1;" parent="1" vertex="1">
          <mxGeometry x="621.5" y="305" width="183" height="28" as="geometry" />
        </mxCell>
        <mxCell id="-pBQf86W2nje5Cp0ZffW-23" style="edgeStyle=orthogonalEdgeStyle;rounded=0;orthogonalLoop=1;jettySize=auto;html=1;exitX=0.5;exitY=1;exitDx=0;exitDy=0;entryX=0.5;entryY=0;entryDx=0;entryDy=0;" parent="1" source="-pBQf86W2nje5Cp0ZffW-9" target="-pBQf86W2nje5Cp0ZffW-10" edge="1">
          <mxGeometry relative="1" as="geometry" />
        </mxCell>
        <mxCell id="-pBQf86W2nje5Cp0ZffW-28" style="edgeStyle=orthogonalEdgeStyle;rounded=0;orthogonalLoop=1;jettySize=auto;html=1;exitX=1;exitY=0.5;exitDx=0;exitDy=0;" parent="1" source="-pBQf86W2nje5Cp0ZffW-9" target="-pBQf86W2nje5Cp0ZffW-12" edge="1">
          <mxGeometry relative="1" as="geometry">
            <Array as="points">
              <mxPoint x="827" y="368" />
              <mxPoint x="827" y="561" />
            </Array>
          </mxGeometry>
        </mxCell>
        <mxCell id="-pBQf86W2nje5Cp0ZffW-9" value="цикл на 11 итераций" style="shape=hexagon;perimeter=hexagonPerimeter2;whiteSpace=wrap;html=1;fixedSize=1;" parent="1" vertex="1">
          <mxGeometry x="631" y="350" width="164" height="36" as="geometry" />
        </mxCell>
        <mxCell id="-pBQf86W2nje5Cp0ZffW-24" style="edgeStyle=orthogonalEdgeStyle;rounded=0;orthogonalLoop=1;jettySize=auto;html=1;exitX=0.5;exitY=1;exitDx=0;exitDy=0;" parent="1" source="-pBQf86W2nje5Cp0ZffW-10" target="-pBQf86W2nje5Cp0ZffW-11" edge="1">
          <mxGeometry relative="1" as="geometry" />
        </mxCell>
        <mxCell id="-pBQf86W2nje5Cp0ZffW-27" style="edgeStyle=orthogonalEdgeStyle;rounded=0;orthogonalLoop=1;jettySize=auto;html=1;exitX=1;exitY=0.5;exitDx=0;exitDy=0;entryX=0;entryY=0.5;entryDx=0;entryDy=0;" parent="1" source="-pBQf86W2nje5Cp0ZffW-10" target="-pBQf86W2nje5Cp0ZffW-9" edge="1">
          <mxGeometry relative="1" as="geometry">
            <Array as="points">
              <mxPoint x="815" y="427" />
              <mxPoint x="815" y="545" />
              <mxPoint x="601" y="545" />
              <mxPoint x="601" y="368" />
            </Array>
          </mxGeometry>
        </mxCell>
        <mxCell id="-pBQf86W2nje5Cp0ZffW-10" value="&lt;div&gt;цикл на 255 итераций&lt;/div&gt;" style="shape=hexagon;perimeter=hexagonPerimeter2;whiteSpace=wrap;html=1;fixedSize=1;" parent="1" vertex="1">
          <mxGeometry x="631" y="409" width="164" height="36" as="geometry" />
        </mxCell>
        <mxCell id="-pBQf86W2nje5Cp0ZffW-25" style="edgeStyle=orthogonalEdgeStyle;rounded=0;orthogonalLoop=1;jettySize=auto;html=1;exitX=1;exitY=0.5;exitDx=0;exitDy=0;entryX=0;entryY=0.5;entryDx=0;entryDy=0;" parent="1" source="-pBQf86W2nje5Cp0ZffW-11" target="-pBQf86W2nje5Cp0ZffW-10" edge="1">
          <mxGeometry relative="1" as="geometry">
            <Array as="points">
              <mxPoint x="795" y="535" />
              <mxPoint x="611" y="535" />
              <mxPoint x="611" y="427" />
            </Array>
          </mxGeometry>
        </mxCell>
        <mxCell id="-pBQf86W2nje5Cp0ZffW-11" value="&lt;div&gt;цикл на 255 итераций&lt;/div&gt;" style="shape=hexagon;perimeter=hexagonPerimeter2;whiteSpace=wrap;html=1;fixedSize=1;" parent="1" vertex="1">
          <mxGeometry x="631" y="474" width="164" height="36" as="geometry" />
        </mxCell>
        <mxCell id="-pBQf86W2nje5Cp0ZffW-29" style="edgeStyle=orthogonalEdgeStyle;rounded=0;orthogonalLoop=1;jettySize=auto;html=1;exitX=0;exitY=0.5;exitDx=0;exitDy=0;" parent="1" source="-pBQf86W2nje5Cp0ZffW-12" edge="1">
          <mxGeometry relative="1" as="geometry">
            <mxPoint x="713" y="190" as="targetPoint" />
            <Array as="points">
              <mxPoint x="568" y="616" />
              <mxPoint x="568" y="190" />
            </Array>
          </mxGeometry>
        </mxCell>
        <mxCell id="-pBQf86W2nje5Cp0ZffW-54" style="edgeStyle=orthogonalEdgeStyle;rounded=0;orthogonalLoop=1;jettySize=auto;html=1;exitX=0.5;exitY=1;exitDx=0;exitDy=0;entryX=0.5;entryY=0;entryDx=0;entryDy=0;" parent="1" source="-pBQf86W2nje5Cp0ZffW-12" target="-pBQf86W2nje5Cp0ZffW-34" edge="1">
          <mxGeometry relative="1" as="geometry">
            <mxPoint x="863" y="137" as="targetPoint" />
            <Array as="points">
              <mxPoint x="713" y="676" />
              <mxPoint x="854" y="676" />
              <mxPoint x="854" y="289" />
              <mxPoint x="1048" y="289" />
            </Array>
          </mxGeometry>
        </mxCell>
        <mxCell id="-pBQf86W2nje5Cp0ZffW-12" value="Кнопка стоп нажата?" style="rhombus;whiteSpace=wrap;html=1;" parent="1" vertex="1">
          <mxGeometry x="629" y="576" width="168" height="80" as="geometry" />
        </mxCell>
        <mxCell id="-pBQf86W2nje5Cp0ZffW-26" style="edgeStyle=orthogonalEdgeStyle;rounded=0;orthogonalLoop=1;jettySize=auto;html=1;exitX=0.5;exitY=1;exitDx=0;exitDy=0;entryX=0;entryY=0.5;entryDx=0;entryDy=0;" parent="1" source="-pBQf86W2nje5Cp0ZffW-11" target="-pBQf86W2nje5Cp0ZffW-11" edge="1">
          <mxGeometry relative="1" as="geometry">
            <Array as="points">
              <mxPoint x="713" y="530" />
              <mxPoint x="620" y="530" />
              <mxPoint x="620" y="492" />
            </Array>
          </mxGeometry>
        </mxCell>
        <mxCell id="-pBQf86W2nje5Cp0ZffW-30" value="&lt;div&gt;да&lt;/div&gt;" style="text;html=1;align=center;verticalAlign=middle;resizable=0;points=[];autosize=1;strokeColor=none;fillColor=none;" parent="1" vertex="1">
          <mxGeometry x="595" y="624" width="24" height="18" as="geometry" />
        </mxCell>
        <mxCell id="-pBQf86W2nje5Cp0ZffW-32" value="&lt;div&gt;нет&lt;/div&gt;" style="text;html=1;align=center;verticalAlign=middle;resizable=0;points=[];autosize=1;strokeColor=none;fillColor=none;" parent="1" vertex="1">
          <mxGeometry x="610" y="224" width="29" height="18" as="geometry" />
        </mxCell>
        <mxCell id="-pBQf86W2nje5Cp0ZffW-33" value="Да" style="text;html=1;align=center;verticalAlign=middle;resizable=0;points=[];autosize=1;strokeColor=none;fillColor=none;" parent="1" vertex="1">
          <mxGeometry x="676" y="279" width="25" height="18" as="geometry" />
        </mxCell>
        <mxCell id="-pBQf86W2nje5Cp0ZffW-45" style="edgeStyle=orthogonalEdgeStyle;rounded=0;orthogonalLoop=1;jettySize=auto;html=1;exitX=1;exitY=0.5;exitDx=0;exitDy=0;entryX=0.5;entryY=0;entryDx=0;entryDy=0;" parent="1" source="-pBQf86W2nje5Cp0ZffW-34" target="-pBQf86W2nje5Cp0ZffW-35" edge="1">
          <mxGeometry relative="1" as="geometry" />
        </mxCell>
        <mxCell id="-pBQf86W2nje5Cp0ZffW-46" style="edgeStyle=orthogonalEdgeStyle;rounded=0;orthogonalLoop=1;jettySize=auto;html=1;exitX=0;exitY=0.5;exitDx=0;exitDy=0;entryX=0.5;entryY=0;entryDx=0;entryDy=0;" parent="1" source="-pBQf86W2nje5Cp0ZffW-34" target="-pBQf86W2nje5Cp0ZffW-38" edge="1">
          <mxGeometry relative="1" as="geometry" />
        </mxCell>
        <mxCell id="-pBQf86W2nje5Cp0ZffW-34" value="Флаг Т==0?" style="rhombus;whiteSpace=wrap;html=1;" parent="1" vertex="1">
          <mxGeometry x="981" y="314" width="135" height="57" as="geometry" />
        </mxCell>
        <mxCell id="-pBQf86W2nje5Cp0ZffW-43" style="edgeStyle=orthogonalEdgeStyle;rounded=0;orthogonalLoop=1;jettySize=auto;html=1;exitX=0.5;exitY=1;exitDx=0;exitDy=0;" parent="1" source="-pBQf86W2nje5Cp0ZffW-35" edge="1">
          <mxGeometry relative="1" as="geometry">
            <mxPoint x="1152" y="473" as="targetPoint" />
          </mxGeometry>
        </mxCell>
        <mxCell id="-pBQf86W2nje5Cp0ZffW-49" style="edgeStyle=orthogonalEdgeStyle;rounded=0;orthogonalLoop=1;jettySize=auto;html=1;exitX=1;exitY=0.5;exitDx=0;exitDy=0;" parent="1" source="-pBQf86W2nje5Cp0ZffW-35" edge="1">
          <mxGeometry relative="1" as="geometry">
            <mxPoint x="1152" y="514" as="targetPoint" />
            <Array as="points">
              <mxPoint x="1235" y="435" />
              <mxPoint x="1235" y="514" />
            </Array>
          </mxGeometry>
        </mxCell>
        <mxCell id="-pBQf86W2nje5Cp0ZffW-35" value="led_reg(0) == 1?" style="rhombus;whiteSpace=wrap;html=1;" parent="1" vertex="1">
          <mxGeometry x="1088" y="412" width="127" height="45.5" as="geometry" />
        </mxCell>
        <mxCell id="-pBQf86W2nje5Cp0ZffW-42" style="edgeStyle=orthogonalEdgeStyle;rounded=0;orthogonalLoop=1;jettySize=auto;html=1;exitX=0.5;exitY=1;exitDx=0;exitDy=0;" parent="1" source="-pBQf86W2nje5Cp0ZffW-36" target="-pBQf86W2nje5Cp0ZffW-37" edge="1">
          <mxGeometry relative="1" as="geometry" />
        </mxCell>
        <mxCell id="-pBQf86W2nje5Cp0ZffW-36" value="T = 1" style="whiteSpace=wrap;html=1;" parent="1" vertex="1">
          <mxGeometry x="1114.5" y="474" width="74" height="27" as="geometry" />
        </mxCell>
        <mxCell id="-pBQf86W2nje5Cp0ZffW-56" style="rounded=1;orthogonalLoop=1;jettySize=auto;html=1;exitX=0.5;exitY=1;exitDx=0;exitDy=0;endArrow=none;endFill=0;" parent="1" source="-pBQf86W2nje5Cp0ZffW-37" edge="1">
          <mxGeometry relative="1" as="geometry">
            <mxPoint x="1151.6470588235295" y="604.5294117647059" as="targetPoint" />
          </mxGeometry>
        </mxCell>
        <mxCell id="-pBQf86W2nje5Cp0ZffW-37" value="&lt;div&gt;сдвиг регистра reg_led&amp;nbsp; вправо  &lt;/div&gt;" style="whiteSpace=wrap;html=1;" parent="1" vertex="1">
          <mxGeometry x="1089" y="530" width="126" height="50" as="geometry" />
        </mxCell>
        <mxCell id="-pBQf86W2nje5Cp0ZffW-44" style="edgeStyle=orthogonalEdgeStyle;rounded=0;orthogonalLoop=1;jettySize=auto;html=1;exitX=0.5;exitY=1;exitDx=0;exitDy=0;entryX=0.5;entryY=0;entryDx=0;entryDy=0;" parent="1" source="-pBQf86W2nje5Cp0ZffW-38" target="-pBQf86W2nje5Cp0ZffW-39" edge="1">
          <mxGeometry relative="1" as="geometry" />
        </mxCell>
        <mxCell id="-pBQf86W2nje5Cp0ZffW-48" style="edgeStyle=orthogonalEdgeStyle;rounded=0;orthogonalLoop=1;jettySize=auto;html=1;exitX=0;exitY=0.5;exitDx=0;exitDy=0;" parent="1" source="-pBQf86W2nje5Cp0ZffW-38" edge="1">
          <mxGeometry relative="1" as="geometry">
            <mxPoint x="959.2" y="516.8" as="targetPoint" />
            <Array as="points">
              <mxPoint x="876" y="435" />
              <mxPoint x="876" y="517" />
              <mxPoint x="959" y="517" />
            </Array>
          </mxGeometry>
        </mxCell>
        <mxCell id="-pBQf86W2nje5Cp0ZffW-38" value="led_reg(0) == 1?" style="rhombus;whiteSpace=wrap;html=1;" parent="1" vertex="1">
          <mxGeometry x="896" y="412" width="127" height="45.5" as="geometry" />
        </mxCell>
        <mxCell id="-pBQf86W2nje5Cp0ZffW-41" style="edgeStyle=orthogonalEdgeStyle;rounded=0;orthogonalLoop=1;jettySize=auto;html=1;exitX=0.5;exitY=1;exitDx=0;exitDy=0;" parent="1" source="-pBQf86W2nje5Cp0ZffW-39" target="-pBQf86W2nje5Cp0ZffW-40" edge="1">
          <mxGeometry relative="1" as="geometry" />
        </mxCell>
        <mxCell id="-pBQf86W2nje5Cp0ZffW-39" value="T = 0" style="whiteSpace=wrap;html=1;" parent="1" vertex="1">
          <mxGeometry x="922.5" y="474" width="74" height="27" as="geometry" />
        </mxCell>
        <mxCell id="-pBQf86W2nje5Cp0ZffW-55" style="edgeStyle=orthogonalEdgeStyle;rounded=0;orthogonalLoop=1;jettySize=auto;html=1;exitX=0.5;exitY=1;exitDx=0;exitDy=0;" parent="1" source="-pBQf86W2nje5Cp0ZffW-40" edge="1">
          <mxGeometry relative="1" as="geometry">
            <mxPoint x="711.6470588235295" y="289.2352941176471" as="targetPoint" />
            <Array as="points">
              <mxPoint x="959" y="602" />
              <mxPoint x="1273" y="602" />
              <mxPoint x="1273" y="272" />
              <mxPoint x="812" y="272" />
              <mxPoint x="812" y="289" />
            </Array>
          </mxGeometry>
        </mxCell>
        <mxCell id="-pBQf86W2nje5Cp0ZffW-40" value="&lt;div&gt;сдвиг регистра reg_led влево &lt;/div&gt;" style="whiteSpace=wrap;html=1;" parent="1" vertex="1">
          <mxGeometry x="896" y="532" width="126" height="50" as="geometry" />
        </mxCell>
        <mxCell id="-pBQf86W2nje5Cp0ZffW-50" value="Да" style="text;html=1;align=center;verticalAlign=middle;resizable=0;points=[];autosize=1;strokeColor=none;fillColor=none;" parent="1" vertex="1">
          <mxGeometry x="865" y="406" width="25" height="18" as="geometry" />
        </mxCell>
        <mxCell id="-pBQf86W2nje5Cp0ZffW-51" value="Да" style="text;html=1;align=center;verticalAlign=middle;resizable=0;points=[];autosize=1;strokeColor=none;fillColor=none;" parent="1" vertex="1">
          <mxGeometry x="1204" y="406" width="25" height="18" as="geometry" />
        </mxCell>
        <mxCell id="-pBQf86W2nje5Cp0ZffW-52" value="&lt;div&gt;нет&lt;/div&gt;" style="text;html=1;align=center;verticalAlign=middle;resizable=0;points=[];autosize=1;strokeColor=none;fillColor=none;" parent="1" vertex="1">
          <mxGeometry x="918" y="453" width="29" height="18" as="geometry" />
        </mxCell>
        <mxCell id="-pBQf86W2nje5Cp0ZffW-53" value="&lt;div&gt;нет&lt;/div&gt;" style="text;html=1;align=center;verticalAlign=middle;resizable=0;points=[];autosize=1;strokeColor=none;fillColor=none;" parent="1" vertex="1">
          <mxGeometry x="1166" y="449" width="29" height="18" as="geometry" />
        </mxCell>
        <mxCell id="Ssx3JKatnMavZMnZCFTi-1" value="Да" style="text;html=1;align=center;verticalAlign=middle;resizable=0;points=[];autosize=1;strokeColor=none;fillColor=none;" vertex="1" parent="1">
          <mxGeometry x="952" y="317" width="25" height="18" as="geometry" />
        </mxCell>
        <mxCell id="Ssx3JKatnMavZMnZCFTi-2" value="Нет" style="text;html=1;align=center;verticalAlign=middle;resizable=0;points=[];autosize=1;strokeColor=none;fillColor=none;" vertex="1" parent="1">
          <mxGeometry x="1117" y="317" width="31" height="18" as="geometry" />
        </mxCell>
      </root>
    </mxGraphModel>
  </diagram>
</mxfile>
